<svg id="レイヤー_1" data-name="レイヤー 1" xmlns="http://www.w3.org/2000/svg" viewBox="0 0 405.68 405.68"><defs><style>.cls-1{fill:none;stroke:#fff;stroke-miterlimit:10;stroke-width:18px;}.cls-2{fill:#fff;}</style></defs><rect class="cls-1" x="9" y="9" width="387.68" height="387.68"/><path class="cls-2" d="M316.51,273.24v16.58h-28v77.06H268.8V289.82H240.66V273.24Z" transform="translate(-97.41 -118.39)"/><path class="cls-2" d="M341,366.43H323.64V272.78H341Z" transform="translate(-97.41 -118.39)"/><path class="cls-2" d="M210.17,396.24h21.05l31.5,89H242.55L236.67,467H203.89l-6,18.3H178.39ZM209,451.62h22.8l-11.25-35Z" transform="translate(-97.41 -118.39)"/><path class="cls-2" d="M268.8,396.24h19.5l35.34,62.08V396.24H341v89h-18.6L286.13,422.1v63.17H268.8Z" transform="translate(-97.41 -118.39)"/><path class="cls-2" d="M400.71,398.17a29.44,29.44,0,0,1,15.17,11.29,39.75,39.75,0,0,1,6.35,14.38,68.84,68.84,0,0,1,1.69,14.74q0,17.76-7.13,30.08-9.68,16.6-29.86,16.61H348.54v-89h38.39A46.79,46.79,0,0,1,400.71,398.17ZM366.6,411.7v58.11h17.18q13.19,0,18.39-13a45.63,45.63,0,0,0,2.85-17q0-13.59-4.27-20.87t-17-7.28Z" transform="translate(-97.41 -118.39)"/><path class="cls-2" d="M281.24,230.81a14,14,0,1,1-14-14A14,14,0,0,1,281.24,230.81ZM316,172.92a14,14,0,1,1-14-14A14,14,0,0,1,316,172.92Zm34.76,57.89a14,14,0,1,1-14-14A14,14,0,0,1,350.76,230.81Z" transform="translate(-97.41 -118.39)"/></svg>