<?xml version="1.0" encoding="utf-8"?>
<!-- Generator: Adobe Illustrator 24.3.0, SVG Export Plug-In . SVG Version: 6.00 Build 0)  -->
<svg version="1.1" id="レイヤー_1" xmlns="http://www.w3.org/2000/svg" xmlns:xlink="http://www.w3.org/1999/xlink" x="0px"
	 y="0px" viewBox="0 0 595.28 841.89" style="enable-background:new 0 0 595.28 841.89;" xml:space="preserve">
<style type="text/css">
	.st0{fill:none;stroke:#D71F18;stroke-width:18;stroke-miterlimit:10;}
	.st1{fill:#D71F18;}
</style>
<rect x="106.41" y="127.39" class="st0" width="387.68" height="387.68"/>
<g>
	<g>
		<path class="st1" d="M316.51,273.24v16.58H288.5v77.06h-19.7v-77.06h-28.14v-16.58H316.51z"/>
		<path class="st1" d="M340.98,366.43h-17.34v-93.64h17.34V366.43z"/>
	</g>
	<g>
		<path class="st1" d="M210.17,396.24h21.05l31.5,89.03h-20.17l-5.87-18.3h-32.79l-6.04,18.3h-19.46L210.17,396.24z M208.95,451.62
			h22.8l-11.25-35.03L208.95,451.62z"/>
		<path class="st1" d="M268.8,396.24h19.5l35.34,62.08v-62.08h17.34v89.03h-18.6l-36.25-63.17v63.17H268.8V396.24z"/>
		<path class="st1" d="M400.71,398.17c6.25,2.05,11.3,5.82,15.17,11.3c3.1,4.43,5.22,9.22,6.35,14.38
			c1.13,5.15,1.69,10.07,1.69,14.74c0,11.84-2.38,21.87-7.13,30.08c-6.45,11.07-16.4,16.61-29.86,16.61h-38.39v-89.03h38.39
			C392.45,396.32,397.04,396.96,400.71,398.17z M366.6,411.7v58.11h17.18c8.79,0,14.92-4.33,18.39-12.99
			c1.9-4.75,2.84-10.41,2.84-16.97c0-9.06-1.42-16.02-4.27-20.87c-2.84-4.85-8.5-7.28-16.97-7.28H366.6z"/>
	</g>
	<g>
		<path class="st1" d="M281.24,230.81c0,7.79-6.43,13.98-13.98,13.98c-7.67,0-13.98-6.18-13.98-13.98s6.31-13.98,13.98-13.98
			C274.81,216.84,281.24,223.02,281.24,230.81z M316,172.92c0,7.79-6.43,13.98-13.98,13.98c-7.55,0-13.98-6.18-13.98-13.98
			c0-7.79,6.31-13.98,13.98-13.98C309.69,158.94,316,165.13,316,172.92z M350.76,230.81c0,7.79-6.31,13.98-13.98,13.98
			c-7.55,0-13.98-6.18-13.98-13.98s6.43-13.98,13.98-13.98C344.45,216.84,350.76,223.02,350.76,230.81z"/>
	</g>
</g>
</svg>
